<?xml version="1.0" encoding="UTF-8"?>
<svg id="Layer_1" data-name="Layer 1" xmlns="http://www.w3.org/2000/svg" xmlns:xlink="http://www.w3.org/1999/xlink" viewBox="0 0 765 157.33">
  <defs>
    <style>
      .cls-1 {
        fill: url(#linear-gradient);
      }

      .cls-1, .cls-2, .cls-3, .cls-4 {
        stroke-width: 0px;
      }

      .cls-2 {
        fill: url(#linear-gradient-2);
      }

      .cls-3 {
        fill: url(#linear-gradient-3);
      }

      .cls-4 {
        fill: #fff;
      }
    </style>
    <linearGradient id="linear-gradient" x1="2" y1="1.32" x2="415.42" y2="414.73" gradientUnits="userSpaceOnUse">
      <stop offset="0" stop-color="#eeb131"/>
      <stop offset=".5" stop-color="#c86228"/>
      <stop offset="1" stop-color="#bc3a33"/>
    </linearGradient>
    <linearGradient id="linear-gradient-2" x1="68.49" y1="-65.46" x2="363.25" y2="229.31" xlink:href="#linear-gradient"/>
    <linearGradient id="linear-gradient-3" x1="113.04" y1="-191.24" x2="425.96" y2="121.69" xlink:href="#linear-gradient"/>
  </defs>
  <g>
    <rect class="cls-4" x="451.38" y="2.74" width="4.65" height="152.09"/>
    <g>
      <path class="cls-4" d="M485.37,31.42c-1.7,0-3.23-.28-4.58-.85-1.36-.57-2.51-1.38-3.46-2.44-.95-1.06-1.67-2.35-2.18-3.88-.51-1.53-.76-3.24-.76-5.14s.25-3.62.76-5.14c.51-1.52,1.24-2.81,2.18-3.87.95-1.06,2.1-1.87,3.46-2.44,1.36-.57,2.89-.85,4.58-.85,1.38,0,2.68.22,3.88.66,1.2.44,2.25,1.05,3.15,1.83.9.78,1.62,1.7,2.17,2.77.55,1.07.87,2.24.96,3.52h-4.77c-.12-.67-.34-1.28-.65-1.83-.31-.55-.71-1.02-1.18-1.41-.47-.39-1.01-.69-1.61-.9-.61-.21-1.25-.32-1.95-.32-.92,0-1.75.18-2.48.55-.74.37-1.36.9-1.88,1.59-.52.69-.92,1.53-1.19,2.52-.28.98-.41,2.09-.41,3.33s.14,2.34.41,3.33c.28.99.67,1.83,1.19,2.52.52.69,1.15,1.22,1.88,1.59.74.37,1.57.56,2.5.56.7,0,1.36-.1,1.96-.3.61-.2,1.14-.48,1.61-.85.46-.37.85-.81,1.17-1.33.31-.52.53-1.1.65-1.75h4.77c-.1,1.27-.42,2.42-.97,3.47-.55,1.05-1.27,1.95-2.16,2.7-.89.75-1.94,1.34-3.14,1.75-1.2.42-2.5.62-3.91.62Z"/>
      <path class="cls-4" d="M517.57,30.82h-15.51V7.41h15.51v4.19h-10.61v5.47h10.01v3.88h-10.01v5.7h10.61v4.19Z"/>
      <path class="cls-4" d="M524.72,30.82V7.41h4.09l10.77,14.59h.29V7.41h4.69v23.41h-4.06l-10.81-14.65h-.29v14.65h-4.69Z"/>
      <path class="cls-4" d="M557.92,30.82V11.6h-7.03v-4.19h18.95v4.19h-7.03v19.23h-4.9Z"/>
      <path class="cls-4" d="M581.07,30.82h-4.9V7.41h9.83c1.29,0,2.44.17,3.47.52,1.03.35,1.9.84,2.61,1.49.71.65,1.26,1.44,1.65,2.36.38.92.58,1.97.58,3.14,0,.75-.09,1.46-.28,2.15-.19.69-.47,1.32-.83,1.9-.36.58-.81,1.09-1.34,1.53-.53.44-1.13.8-1.8,1.07l4.93,9.25h-5.55l-4.36-8.49h-4.01v8.49ZM581.07,18.57h4.3c1.24,0,2.21-.31,2.89-.94.68-.63,1.02-1.51,1.02-2.64,0-.55-.09-1.05-.28-1.5-.18-.45-.45-.83-.79-1.14-.34-.31-.76-.55-1.25-.72s-1.04-.25-1.65-.25h-4.25v7.2Z"/>
      <path class="cls-4" d="M616.75,30.82h-15.51V7.41h15.51v4.19h-10.61v5.47h10.01v3.88h-10.01v5.7h10.61v4.19Z"/>
      <path class="cls-4" d="M634.47,30.82V7.41h15.33v4.19h-10.43v6.1h9.52v4.01h-9.52v9.12h-4.9Z"/>
      <path class="cls-4" d="M666.56,6.81c1.73,0,3.29.29,4.67.86,1.38.57,2.56,1.39,3.54,2.45.97,1.06,1.72,2.35,2.25,3.87.52,1.52.79,3.23.79,5.12s-.26,3.62-.78,5.14-1.27,2.81-2.24,3.87c-.97,1.06-2.16,1.88-3.55,2.45-1.39.57-2.95.86-4.68.86s-3.31-.29-4.7-.86c-1.39-.57-2.57-1.39-3.55-2.45-.97-1.06-1.72-2.35-2.25-3.87-.52-1.52-.79-3.23-.79-5.14s.26-3.6.8-5.12c.53-1.52,1.28-2.81,2.26-3.88.98-1.07,2.16-1.88,3.55-2.45,1.39-.57,2.95-.85,4.66-.85ZM666.56,11.11c-.95,0-1.81.19-2.58.56-.77.37-1.43.91-1.97,1.6-.55.69-.97,1.53-1.27,2.52-.3.99-.45,2.1-.45,3.32s.15,2.33.44,3.31c.29.98.71,1.83,1.25,2.52.54.7,1.2,1.24,1.97,1.61.77.38,1.64.57,2.6.57s1.81-.19,2.58-.57c.77-.38,1.43-.92,1.97-1.61.55-.7.97-1.54,1.26-2.52.29-.98.44-2.09.44-3.31s-.15-2.33-.44-3.32c-.29-.99-.71-1.83-1.26-2.52-.55-.69-1.2-1.23-1.97-1.6-.77-.37-1.63-.56-2.58-.56Z"/>
      <path class="cls-4" d="M689.34,30.82h-4.9V7.41h9.83c1.29,0,2.44.17,3.47.52,1.03.35,1.9.84,2.61,1.49.71.65,1.26,1.44,1.65,2.36.38.92.58,1.97.58,3.14,0,.75-.09,1.46-.28,2.15-.19.69-.47,1.32-.83,1.9-.36.58-.81,1.09-1.34,1.53s-1.13.8-1.8,1.07l4.93,9.25h-5.55l-4.36-8.49h-4.01v8.49ZM689.34,18.57h4.3c1.24,0,2.21-.31,2.89-.94.68-.63,1.02-1.51,1.02-2.64,0-.55-.09-1.05-.28-1.5-.18-.45-.45-.83-.79-1.14-.34-.31-.76-.55-1.25-.72s-1.04-.25-1.65-.25h-4.25v7.2Z"/>
      <path class="cls-4" d="M491.39,75.56l-1.62-2.3c-1.26.41-2.62.62-4.11.62-1.73,0-3.29-.28-4.68-.85-1.39-.57-2.57-1.38-3.55-2.44-.98-1.06-1.73-2.35-2.26-3.87-.52-1.52-.79-3.24-.79-5.15s.26-3.6.8-5.12c.53-1.52,1.28-2.81,2.26-3.88.98-1.07,2.16-1.88,3.55-2.45,1.39-.57,2.95-.85,4.66-.85s3.27.28,4.66.85c1.38.57,2.57,1.38,3.55,2.45.98,1.07,1.73,2.36,2.26,3.88.52,1.52.79,3.23.79,5.12,0,2.11-.32,3.98-.95,5.61-.63,1.63-1.54,2.96-2.73,3.98l2.9,4.41h-4.74ZM485.68,69.57c.29,0,.58-.02.85-.06.28-.04.55-.09.84-.15l-2.66-3.89h4.45l1.09,1.31c.54-.58.95-1.32,1.24-2.2.29-.88.43-1.89.43-3.03,0-1.22-.15-2.33-.45-3.32-.3-.99-.72-1.83-1.26-2.52-.54-.69-1.2-1.23-1.97-1.6-.77-.37-1.63-.56-2.57-.56s-1.81.19-2.58.56c-.77.37-1.43.91-1.97,1.6-.55.69-.97,1.53-1.27,2.52-.3.99-.45,2.1-.45,3.32s.15,2.34.45,3.33c.3.99.72,1.83,1.26,2.52.54.69,1.2,1.23,1.97,1.6.77.37,1.64.56,2.6.56Z"/>
      <path class="cls-4" d="M508.5,64.69c0,.74.11,1.4.32,2,.22.59.53,1.1.95,1.53.42.42.93.75,1.54.97.61.23,1.31.34,2.09.34s1.49-.11,2.1-.34c.61-.23,1.13-.55,1.54-.97.42-.42.73-.93.95-1.53.22-.6.32-1.26.32-2v-14.83h4.9v15.33c0,1.3-.23,2.48-.69,3.55-.46,1.07-1.12,1.98-1.97,2.74-.85.76-1.89,1.35-3.09,1.77-1.21.42-2.56.62-4.06.62s-2.85-.21-4.06-.62c-1.21-.42-2.24-1.01-3.09-1.77-.85-.76-1.5-1.68-1.96-2.74-.46-1.07-.69-2.25-.69-3.55v-15.33h4.9v14.83Z"/>
      <path class="cls-4" d="M544.19,67.69h-8.23l-1.8,5.58h-4.92l8.13-23.41h5.76l8.13,23.41h-5.31l-1.77-5.58ZM537.02,63.91h6.13l-2.9-9.18h-.29l-2.94,9.18Z"/>
      <path class="cls-4" d="M557.25,73.27v-23.41h4.09l10.77,14.59h.29v-14.59h4.69v23.41h-4.06l-10.81-14.65h-.29v14.65h-4.69Z"/>
      <path class="cls-4" d="M590.45,73.27v-19.23h-7.03v-4.19h18.95v4.19h-7.03v19.23h-4.9Z"/>
      <path class="cls-4" d="M613.65,64.69c0,.74.11,1.4.32,2,.22.59.53,1.1.95,1.53.42.42.93.75,1.54.97.61.23,1.31.34,2.09.34s1.49-.11,2.1-.34c.61-.23,1.12-.55,1.54-.97.42-.42.73-.93.95-1.53.22-.6.32-1.26.32-2v-14.83h4.9v15.33c0,1.3-.23,2.48-.69,3.55-.46,1.07-1.12,1.98-1.97,2.74-.85.76-1.89,1.35-3.09,1.77-1.21.42-2.56.62-4.06.62s-2.85-.21-4.06-.62c-1.21-.42-2.24-1.01-3.09-1.77-.85-.76-1.5-1.68-1.96-2.74-.46-1.07-.69-2.25-.69-3.55v-15.33h4.9v14.83Z"/>
      <path class="cls-4" d="M636.07,73.27v-23.41h5.78l6.47,15.74h.29l6.49-15.74h5.76v23.41h-4.54v-15.66h-.26l-5.96,14.31h-3.26l-5.97-14.31h-.26v15.66h-4.54Z"/>
      <path class="cls-4" d="M481.11,115.72v-19.23h-7.03v-4.19h18.95v4.19h-7.03v19.23h-4.9Z"/>
      <path class="cls-4" d="M514.87,115.72h-15.51v-23.41h15.51v4.19h-10.61v5.47h10.01v3.88h-10.01v5.7h10.61v4.19Z"/>
      <path class="cls-4" d="M531.97,116.32c-1.7,0-3.23-.28-4.58-.85-1.36-.57-2.51-1.38-3.46-2.44-.95-1.06-1.67-2.35-2.18-3.88-.51-1.53-.76-3.24-.76-5.14s.25-3.62.76-5.14c.51-1.52,1.24-2.81,2.18-3.87.95-1.06,2.1-1.87,3.46-2.44,1.36-.57,2.89-.85,4.58-.85,1.38,0,2.68.22,3.88.66,1.2.44,2.25,1.05,3.15,1.83.9.78,1.62,1.7,2.17,2.77.55,1.07.87,2.24.96,3.52h-4.77c-.12-.67-.34-1.28-.65-1.83-.31-.55-.71-1.02-1.18-1.41-.47-.39-1.01-.69-1.61-.9-.61-.21-1.25-.32-1.95-.32-.92,0-1.75.18-2.48.55-.74.37-1.36.9-1.88,1.59s-.92,1.53-1.19,2.51c-.28.98-.41,2.09-.41,3.33s.14,2.34.41,3.33c.28.99.67,1.83,1.19,2.52.52.69,1.15,1.22,1.88,1.59.74.37,1.57.56,2.5.56.7,0,1.36-.1,1.96-.3.61-.2,1.14-.48,1.61-.85.47-.37.85-.81,1.17-1.33.31-.52.53-1.1.65-1.75h4.77c-.1,1.27-.42,2.42-.97,3.47-.55,1.05-1.27,1.95-2.16,2.7-.89.75-1.94,1.34-3.14,1.75-1.2.42-2.5.62-3.91.62Z"/>
      <path class="cls-4" d="M564.1,115.72v-9.78h-10.55v9.78h-4.9v-23.41h4.9v9.44h10.55v-9.44h4.9v23.41h-4.9Z"/>
      <path class="cls-4" d="M576.67,115.72v-23.41h4.09l10.77,14.59h.29v-14.59h4.69v23.41h-4.06l-10.81-14.65h-.29v14.65h-4.69Z"/>
      <path class="cls-4" d="M614.43,91.7c1.73,0,3.29.29,4.67.86,1.38.57,2.56,1.39,3.54,2.45s1.72,2.35,2.25,3.87c.52,1.52.79,3.23.79,5.12s-.26,3.62-.78,5.14c-.52,1.52-1.27,2.81-2.24,3.87-.97,1.06-2.16,1.88-3.55,2.45s-2.95.86-4.68.86-3.31-.29-4.7-.86c-1.39-.57-2.57-1.39-3.55-2.45-.97-1.06-1.72-2.35-2.25-3.87-.52-1.52-.79-3.23-.79-5.14s.26-3.6.8-5.12c.53-1.52,1.28-2.81,2.26-3.88.98-1.07,2.16-1.88,3.55-2.45,1.39-.57,2.95-.85,4.66-.85ZM614.43,96c-.95,0-1.81.19-2.58.56-.77.37-1.43.91-1.97,1.6s-.97,1.53-1.27,2.52c-.3.99-.45,2.1-.45,3.32s.15,2.33.44,3.31c.29.98.71,1.83,1.25,2.52.54.7,1.2,1.24,1.97,1.61s1.64.57,2.6.57,1.81-.19,2.58-.57c.77-.38,1.43-.92,1.97-1.61.55-.7.97-1.54,1.26-2.52.29-.98.44-2.09.44-3.31s-.15-2.33-.44-3.32c-.29-.99-.71-1.83-1.26-2.52-.55-.69-1.2-1.23-1.97-1.6-.77-.37-1.63-.56-2.58-.56Z"/>
      <path class="cls-4" d="M647.63,115.72h-15.32v-23.41h4.9v19.15h10.42v4.27Z"/>
      <path class="cls-4" d="M664.31,91.7c1.73,0,3.29.29,4.67.86,1.38.57,2.56,1.39,3.54,2.45.97,1.06,1.72,2.35,2.25,3.87.52,1.52.79,3.23.79,5.12s-.26,3.62-.78,5.14c-.52,1.52-1.27,2.81-2.24,3.87-.97,1.06-2.16,1.88-3.55,2.45-1.39.57-2.95.86-4.68.86s-3.31-.29-4.7-.86c-1.39-.57-2.57-1.39-3.55-2.45-.97-1.06-1.72-2.35-2.25-3.87-.52-1.52-.79-3.23-.79-5.14s.26-3.6.8-5.12c.53-1.52,1.28-2.81,2.26-3.88.98-1.07,2.16-1.88,3.55-2.45,1.39-.57,2.95-.85,4.67-.85ZM664.31,96c-.95,0-1.81.19-2.58.56s-1.43.91-1.97,1.6c-.55.69-.97,1.53-1.27,2.52-.3.99-.45,2.1-.45,3.32s.15,2.33.44,3.31c.29.98.71,1.83,1.25,2.52.54.7,1.2,1.24,1.97,1.61.77.38,1.64.57,2.6.57s1.81-.19,2.58-.57c.77-.38,1.43-.92,1.97-1.61.55-.7.97-1.54,1.26-2.52.29-.98.44-2.09.44-3.31s-.15-2.33-.44-3.32c-.29-.99-.71-1.83-1.26-2.52-.55-.69-1.2-1.23-1.97-1.6-.77-.37-1.63-.56-2.58-.56Z"/>
      <path class="cls-4" d="M702.04,110.4c-.48,1.25-1.17,2.32-2.07,3.2-.9.88-1.99,1.55-3.27,2.02-1.28.47-2.72.71-4.32.71-1.74,0-3.31-.28-4.69-.85-1.38-.57-2.56-1.38-3.53-2.44-.97-1.06-1.71-2.35-2.23-3.88-.52-1.53-.78-3.25-.78-5.16s.26-3.58.78-5.1c.52-1.52,1.26-2.81,2.22-3.87.96-1.06,2.13-1.88,3.5-2.45,1.37-.57,2.91-.86,4.62-.86,1.38,0,2.67.19,3.85.58,1.18.38,2.22.93,3.12,1.63.9.7,1.63,1.55,2.21,2.55.57,1,.95,2.1,1.12,3.31h-4.87c-.37-1.19-1.02-2.11-1.96-2.77-.94-.65-2.09-.98-3.46-.98-.94,0-1.79.18-2.55.54-.76.36-1.4.88-1.92,1.57-.52.68-.93,1.51-1.21,2.49s-.42,2.09-.42,3.32.15,2.38.44,3.37c.29,1,.71,1.84,1.26,2.54.55.7,1.21,1.23,1.99,1.6.78.37,1.65.55,2.61.55.8,0,1.54-.11,2.21-.34.67-.23,1.25-.55,1.73-.96.48-.41.86-.91,1.14-1.49.28-.58.43-1.23.45-1.93l.02-.42h-5.08v-3.68h9.83v2.99c0,1.57-.24,2.98-.72,4.24Z"/>
      <path class="cls-4" d="M709.44,115.72v-23.41h4.9v23.41h-4.9Z"/>
      <path class="cls-4" d="M737.53,115.72h-15.51v-23.41h15.51v4.19h-10.61v5.47h10.01v3.88h-10.01v5.7h10.61v4.19Z"/>
      <path class="cls-4" d="M748.37,109.21c.05.48.21.91.47,1.29.26.38.6.71,1.03.98.43.27.93.48,1.5.62.57.15,1.21.22,1.9.22.64,0,1.22-.07,1.75-.22.53-.15.99-.35,1.37-.62.38-.26.68-.58.9-.95.22-.37.32-.77.32-1.22,0-.37-.08-.7-.23-1.01-.15-.3-.39-.57-.71-.81-.32-.24-.74-.45-1.26-.64-.51-.19-1.13-.36-1.84-.51l-3.05-.65c-4.24-.89-6.36-3.12-6.36-6.69,0-1.1.21-2.1.64-3,.43-.9,1.03-1.67,1.81-2.31.78-.64,1.72-1.14,2.82-1.48,1.1-.35,2.33-.52,3.68-.52s2.47.17,3.55.52c1.08.35,2.02.83,2.81,1.45.79.62,1.41,1.37,1.87,2.23.45.87.7,1.82.73,2.86h-4.61c-.05-.46-.2-.89-.44-1.27-.24-.38-.54-.7-.92-.97s-.81-.48-1.31-.62c-.5-.15-1.05-.22-1.65-.22s-1.17.07-1.67.2c-.5.14-.93.33-1.28.58-.36.25-.63.56-.83.93-.19.36-.29.77-.29,1.21,0,.72.3,1.31.9,1.75.6.44,1.59.81,2.96,1.1l2.82.6c1.18.25,2.19.57,3.04.95.85.38,1.55.85,2.09,1.39.55.54.95,1.17,1.21,1.88.26.71.39,1.53.39,2.43,0,1.18-.22,2.24-.66,3.18-.44.94-1.07,1.74-1.89,2.39-.82.65-1.82,1.16-2.99,1.51-1.17.35-2.49.53-3.96.53-1.4,0-2.66-.17-3.8-.49-1.14-.33-2.11-.8-2.92-1.42s-1.45-1.36-1.91-2.24c-.46-.88-.71-1.86-.75-2.95h4.74Z"/>
    </g>
    <g>
      <path class="cls-4" d="M491.07,146.72c0,1.28-.46,2.3-1.39,3.06-.93.75-2.16,1.13-3.71,1.13-2.07,0-3.76-.65-5.06-1.95l1.08-1.08c1.08,1.08,2.42,1.62,4.02,1.62,1.08,0,1.93-.24,2.55-.73.62-.48.93-1.15.93-2.01s-.24-1.43-.7-1.84c-.37-.33-1.02-.57-1.93-.7l-1.72-.27c-2.56-.4-3.83-1.69-3.83-3.87,0-1.26.42-2.26,1.27-3.02.85-.76,2-1.14,3.45-1.14,1.73,0,3.19.54,4.39,1.62l-1.01,1.01c-.93-.84-2.07-1.26-3.44-1.26-.97,0-1.73.25-2.28.75-.55.5-.83,1.16-.83,1.99,0,.75.23,1.32.68,1.71.46.39,1.11.66,1.97.8l1.62.25c1.2.18,2.1.53,2.69,1.04.83.7,1.24,1.68,1.24,2.92Z"/>
      <path class="cls-4" d="M508.35,150.78h-1.57v-14.75h1.57v14.75Z"/>
      <path class="cls-4" d="M535.95,150.78h-1.49l-7.83-11.83v11.83h-1.57v-14.75h1.49l7.83,11.79v-11.79h1.57v14.75Z"/>
      <path class="cls-4" d="M562.45,145.39c0,1.63-.42,2.9-1.26,3.81-1.05,1.13-2.36,1.7-3.94,1.7-1.49,0-2.75-.51-3.77-1.53-.64-.64-1.04-1.41-1.22-2.32-.11-.62-.17-1.84-.17-3.65s.06-3.02.17-3.65c.18-.91.59-1.69,1.23-2.32,1.03-1.02,2.29-1.53,3.79-1.53,1.39,0,2.55.41,3.49,1.24.9.79,1.46,1.84,1.69,3.17h-1.58c-.21-.94-.63-1.67-1.27-2.21-.64-.53-1.42-.8-2.33-.8-1.01,0-1.87.35-2.56,1.06-.44.46-.74,1.03-.87,1.72-.11.59-.17,1.7-.17,3.31s.05,2.73.17,3.34c.14.69.43,1.26.87,1.72.68.69,1.53,1.04,2.55,1.04,1.17,0,2.11-.42,2.8-1.26.55-.66.83-1.55.83-2.67v-1.12h-3.63v-1.39h5.2v2.34Z"/>
      <path class="cls-4" d="M588.82,150.78h-1.68l-1.18-3.34h-6.44l-1.18,3.34h-1.68l5.43-14.75h1.33l5.41,14.75ZM585.51,146.08l-2.73-7.79-2.78,7.79h5.51Z"/>
      <path class="cls-4" d="M613.69,140.36c0,1.31-.42,2.37-1.26,3.16-.84.79-1.94,1.19-3.29,1.19h-3.92v6.07h-1.57v-14.75h5.49c1.35,0,2.45.39,3.29,1.18.84.79,1.26,1.84,1.26,3.15ZM612.11,140.36c0-.95-.28-1.68-.85-2.18-.57-.5-1.33-.75-2.28-.75h-3.77v5.86h3.77c.95,0,1.71-.25,2.28-.76.57-.5.85-1.23.85-2.19Z"/>
      <path class="cls-4" d="M638.88,143.41c0,1.81-.06,3.02-.17,3.65-.18.91-.59,1.69-1.22,2.32-1.02,1.02-2.28,1.53-3.77,1.53s-2.75-.51-3.77-1.53c-.64-.64-1.04-1.41-1.22-2.32-.11-.62-.17-1.84-.17-3.65s.06-3.02.17-3.65c.18-.91.59-1.69,1.22-2.32,1.02-1.02,2.28-1.53,3.77-1.53s2.75.51,3.77,1.53c.64.64,1.04,1.41,1.22,2.32.11.62.17,1.84.17,3.65ZM637.3,143.41c0-1.62-.06-2.72-.17-3.31-.14-.69-.43-1.26-.87-1.72-.69-.7-1.54-1.06-2.55-1.06s-1.86.35-2.55,1.06c-.44.46-.73,1.03-.87,1.72-.11.59-.17,1.7-.17,3.31s.06,2.72.17,3.31c.14.69.43,1.26.87,1.72.69.7,1.54,1.06,2.55,1.06s1.86-.35,2.55-1.06c.44-.46.73-1.03.87-1.72.11-.59.17-1.7.17-3.31Z"/>
      <path class="cls-4" d="M665.34,150.78h-1.84l-3.36-6.55h-3.54v6.55h-1.57v-14.75h5.66c1.3,0,2.35.37,3.16,1.11.81.74,1.21,1.74,1.21,2.99,0,1.05-.29,1.92-.87,2.61-.58.69-1.36,1.14-2.34,1.35l3.5,6.69ZM663.47,140.15c0-.87-.27-1.54-.81-2.01-.54-.47-1.25-.7-2.13-.7h-3.94v5.41h3.94c.9,0,1.61-.23,2.14-.69.53-.46.8-1.13.8-2Z"/>
      <path class="cls-4" d="M690.2,150.78h-9.16v-14.75h9.16v1.41h-7.58v5.2h6.46v1.41h-6.46v5.32h7.58v1.41Z"/>
    </g>
  </g>
  <g>
    <path class="cls-1" d="M126.47,148.72c-7.27-8.04-11.79-18.27-13.03-29.3h-60.47c-8.32,0-15.12-6.89-15.12-15.3v-50.98c0-8.41,6.8-15.33,15.12-15.33h60.45c1.22-11.08,5.74-21.36,13.04-29.43,1.97-2.17,4.09-4.13,6.35-5.87H39.94C19.27,2.5,2.5,21.24,2.5,44.36v68.35c0,23.15,16.77,41.88,37.44,41.88h92.88c-2.26-1.74-4.39-3.7-6.35-5.88Z"/>
    <path class="cls-2" d="M287.74,46.52v57.5c0,8.32-6.8,15.16-15.12,15.16h-18.94s-15.64-27.78-15.64-27.78h-39.85l15.64,27.76h-40.74c-8.32-.01-15.12-6.82-15.12-15.15v-51.24c0-8.32,6.8-15.16,15.12-15.16l84.62.02V2.5h-97.52c-20.67,0-37.44,18.53-37.44,41.4v69.26c0,22.9,16.77,41.43,37.44,41.43h125.59c20.67,0,37.44-18.53,37.44-41.4V46.52c-15.2,0-25.72,0-35.49,0Z"/>
    <polygon class="cls-3" points="433.42 2.5 433.42 37.59 367.68 37.59 367.68 154.59 332.23 154.59 332.23 37.59 266.31 37.59 266.31 2.5 433.42 2.5"/>
  </g>
</svg>